<mxfile host="app.diagrams.net" modified="2024-02-06T02:31:07.091Z" agent="Mozilla/5.0 (Windows NT 10.0; Win64; x64) AppleWebKit/537.36 (KHTML, like Gecko) Chrome/121.0.0.0 Safari/537.36" version="23.0.0" etag="G7Us7VEgOUnswuS6rSuv" type="github">
  <diagram name="Page-1" id="1i_Dcct36PB3pgRjCaBk">
    <mxGraphModel>
      <root>
        <mxCell id="0" />
        <mxCell id="1" parent="0" />
      </root>
    </mxGraphModel>
  </diagram>
</mxfile>
